<?xml version="1.0" encoding="utf-8"?>
<!-- Generator: Adobe Illustrator 24.3.0, SVG Export Plug-In . SVG Version: 6.00 Build 0)  -->
<svg version="1.1" id="Layer_1" xmlns="http://www.w3.org/2000/svg" xmlns:xlink="http://www.w3.org/1999/xlink" x="0px" y="0px"
	 viewBox="0 0 45 50" style="enable-background:new 0 0 45 50;" xml:space="preserve">
<style type="text/css">
	.st0{fill:#5CB85C;}
</style>
<g>
	<path class="st0" d="M22.84,3.68C12,3.68,3.22,12.46,3.22,23.29c0,10.84,8.78,19.62,19.62,19.62c10.83,0,19.61-8.78,19.61-19.62
		C42.45,12.46,33.67,3.68,22.84,3.68z M22.84,40.89c-9.72,0-17.6-7.88-17.6-17.6c0-9.72,7.88-17.6,17.6-17.6
		c9.72,0,17.6,7.88,17.6,17.6C40.44,33.01,32.56,40.89,22.84,40.89z"/>
	<path class="st0" d="M23.52,18.34c-0.11-0.01-0.21-0.01-0.32-0.01c-0.68,0-1.33,0.15-1.91,0.42h-0.02l-0.01,0.01
		c-1.6,0.73-2.71,2.34-2.71,4.22c0,0.05,0,0.1,0.01,0.15c0.07,2.42,2,4.37,4.41,4.49c0.07,0.01,0.15,0.01,0.23,0.01
		c2.57,0,4.65-2.08,4.65-4.65v-0.1C27.8,20.46,25.91,18.5,23.52,18.34z M23.2,25.39c-1.33,0-2.41-1.07-2.41-2.41
		c0-1.33,1.08-2.41,2.41-2.41c1.33,0,2.41,1.08,2.41,2.41C25.61,24.32,24.53,25.39,23.2,25.39z"/>
	<path class="st0" d="M22.97,27.62l-7.56,4.78c0,0-1.61,0.57-1.91-1.04c0.89-1.59,3.91-6.42,5.06-8.23
		C18.63,25.55,20.56,27.5,22.97,27.62z"/>
	<path class="st0" d="M32.26,15.5c-0.12,0.27-3.09,5.19-4.41,7.38c-0.05-2.42-1.94-4.38-4.33-4.54l7.21-4.56c0,0,0.77-0.7,1.53-0.18
		C33.02,14.13,32.41,15.16,32.26,15.5z"/>
</g>
</svg>
