<?xml version="1.0" encoding="utf-8"?>
<!-- Generator: Adobe Illustrator 24.3.0, SVG Export Plug-In . SVG Version: 6.00 Build 0)  -->
<svg version="1.1" id="Layer_1" xmlns="http://www.w3.org/2000/svg" xmlns:xlink="http://www.w3.org/1999/xlink" x="0px" y="0px"
	 viewBox="0 0 89.58 89.92" style="enable-background:new 0 0 89.58 89.92;" xml:space="preserve">
<style type="text/css">
	.st0{fill:#DBDADA;}
	.st1{fill:#7F3F24;}
	.st2{fill:#F9B986;}
	.st3{fill:none;stroke:#1C0F10;stroke-miterlimit:10;}
	.st4{fill:#FBBC84;}
	.st5{fill:#EF5559;}
	.st6{fill:#585457;}
	.st7{fill:#7E3E23;}
	.st8{fill:#949494;}
	.st9{fill:#6D6D6F;}
	.st10{fill:#D47736;}
	.st11{fill:#D77A31;}
	.st12{fill:#F9BA84;}
	.st13{fill:#6D706F;}
	.st14{fill:#242961;}
	.st15{fill:#EC5B55;}
	.st16{fill:#B78D5B;}
	.st17{fill:#292929;}
	.st18{fill:#B58B59;}
	.st19{fill:#292821;}
	.st20{fill:#38312E;}
	.st21{fill:#007A90;}
	.st22{fill:#90928B;}
	.st23{fill:#342F2D;}
	.st24{fill:#3E3D3B;}
	.st25{fill:#016B71;}
	.st26{fill:#017584;}
	.st27{fill:#5B5B5A;}
	.st28{fill:#E75C51;}
	.st29{fill:#282827;}
	.st30{fill:#686868;}
	.st31{fill:#843D1F;}
	.st32{fill:#343333;}
	.st33{fill:#535353;}
	.st34{fill:#363636;}
	.st35{fill:#863D1D;}
	.st36{fill:#515353;}
	.st37{fill:#F8BD80;}
	.st38{fill:#263A7A;}
	.st39{fill:#017893;}
	.st40{fill:#F3B780;}
	.st41{fill:#919191;}
	.st42{fill:#FBBC7B;}
	.st43{fill:#F05D5E;}
	.st44{fill:#01ABC0;}
	.st45{fill:#343535;}
	.st46{fill:#EA7C7F;}
	.st47{fill:#9B9B9B;}
	.st48{fill:#DADFDB;}
	.st49{fill:#B1AFB0;}
	.st50{fill:#B6B6B7;}
	.st51{fill:#D2D2D2;}
	.st52{fill:#6B6D6C;}
	.st53{fill:#383537;}
	.st54{fill:#FAB986;}
	.st55{fill:#7B7B7B;}
	.st56{fill:#FDE78E;}
	.st57{fill:#FBE269;}
	.st58{fill:#555555;}
	.st59{fill:#F79957;}
	.st60{fill:#F79956;}
	.st61{fill:#92928E;}
	.st62{fill:#026162;}
	.st63{fill:#9ABE3C;}
	.st64{fill:#DAD9D8;}
</style>
<g>
	<rect x="1.88" y="72.81" class="st0" width="84.74" height="15.63"/>
	<path class="st1" d="M19.84,42.93c-0.01,0.03-0.04,0.05-0.09,0.05c-0.23,0.03-0.85-0.27-1.2-0.63c-0.42-0.43-1.03,0.37-1.96-0.17
		c-0.94-0.54-1.84,0.59-1.78,1.54c0.07,0.94,1.22,3.76-1.46,3.25c-0.02,0-0.03-0.01-0.05-0.01c0,0,0.3-1.14-0.2-1.95
		c-0.5-0.8-1.87-3.49,0.61-5.25c0,0,0.43-0.08,0.55-0.53c0.12-0.45,4.91-1.07,5.75,2.92c0,0-0.03,0.38-0.29,0.29
		C19.46,42.35,19.92,42.74,19.84,42.93z"/>
	<path class="st2" d="M19.56,43.41c0,0,0.14,0.66-0.37,0.87c0,0,0.26,1.03,0.28,1.33c0.02,0.3-0.43,0.08-0.43,0.08
		s-0.13,0.16-0.1,0.28c0.02,0.12-0.13,0.35-0.37,0.26c0,0-0.13,0.13-0.08,0.22c0.05,0.09,0.08,1.39-0.95,1.22
		c-1.03-0.17-1.21-1-1.74-0.46c-0.53,0.54-0.51,1.54-0.51,1.54s-0.05,0.03-0.14,0.06c-0.53-0.15-1.76-0.59-1.97-1.38v0l0.17-0.46
		c2.69,0.51,1.53-2.3,1.46-3.25c-0.07-0.95,0.84-2.08,1.78-1.54c0.93,0.54,1.54-0.26,1.96,0.17c0.35,0.37,0.97,0.67,1.2,0.63
		C19.77,43.11,19.74,43.27,19.56,43.41z"/>
	<path class="st3" d="M22.67,58.5c-0.52,0.15-1.09,0.31-1.67,0.44V58.5H22.67z"/>
	<path class="st4" d="M26.68,55.65c0,0,1.19-0.88,1.52-1.11c0.32-0.23,1.81-0.39,2.37,0.07c0.56,0.47,1.23,0.69,1.35,0.79
		c0.11,0.1-0.26,0.38-0.96-0.03c-0.37-0.2-0.81-0.21-0.94-0.21c0,0,0.65,0.22,0.76,0.61c0.11,0.39,0.25,0.93,0.14,1.19
		s-0.31,0.34-0.36,0c-0.05-0.34-0.08-0.44-0.25-0.45s-1.45,0.63-2.84,0.51c-0.34,0.02-0.6,0.08-0.6,0.08L26.68,55.65z"/>
	<path class="st5" d="M14.31,55.71c0.77,0.83,1.31,1.51,1.76,2.04c-0.17,2.09,0.48,4.01,0.48,4.01l-0.33-0.04
		c-3.81-0.58-5.77,0.98-6.02,1.19c-0.02,0.02-0.03,0.02-0.03,0.02l-0.01-0.53c0,0,0.03-3.14-0.1-4.19c-0.13-1.05-0.58-4.86,0.13-7.2
		c0.71-2.34,2.96-3.72,2.96-3.72c0.01,0.04,0.01,0.09,0.02,0.13v0c0.21,0.8,1.45,1.23,1.97,1.38c0.15,0.04,0.24,0.06,0.24,0.06
		s0.74,1.26,1.64,3.41c0.38,0.88,0.31,1.6,0.09,2.28c-1.11-1.65-2.46-3.78-2.46-3.78s-0.97-1.64-2.5-1.09
		C10.64,50.24,11.97,53.21,14.31,55.71z"/>
	<path class="st6" d="M26.95,63.74c-0.03,0.06-0.11,0.18-0.23,0.35l-0.05-0.13c0,0-0.96-1.82-3.16-1.9c-2.2-0.08-6.96-0.3-6.96-0.3
		s-0.09-0.04-0.25-0.11c3.4-0.43,7.66-0.88,9.3-0.86C28.25,60.82,27.31,63,26.95,63.74z"/>
	<path class="st3" d="M43.76,46.7c0,0-0.14,1.55-0.26,2.08l0,0c-0.47,0.14-1.01,0.99-1.01,0.99h-2.24l-0.88-3.22h0.59v0.02
		c0,0.36,0.71,1.54,1.8,1.31c0.86-0.17,1.21-0.55,1.29-1.27L43.76,46.7z"/>
	<path class="st7" d="M42.9,40.07c-0.17,0.27-0.44,0.5-0.88,0.62c-1.56,0.43-1.68-0.22-1.62,0.1c0.06,0.32-0.04,0.44,0.51,0.53
		c0.55,0.08,0.22,1.19,0.22,1.19s-0.77-0.1-0.38,0.32c0.38,0.42,0.81,0.93,0.49,1.07c-0.32,0.14-0.98-1.03-0.98-1.03
		s-0.82-0.4-0.88,0.28c-0.06,0.69,0.69,1.11,0.69,1.11l-0.12,1l0,0.01c0,0-0.05-0.03-0.14-0.09c-0.14-0.09-0.37-0.25-0.64-0.47
		c-0.71-0.57-1.66-1.54-1.82-2.66c0-0.57,0.34-1.58,0.81-1.62c0.14-0.57,0.3-1.5,2.2-1.52c1.9-0.02,2.71,0.02,2.71-0.26
		C43.07,38.46,43.33,39.38,42.9,40.07z"/>
	<path class="st8" d="M35.54,51.68v5.02c-1.14-0.2-1.21-0.95-1.21-0.95S34.89,53.63,35.54,51.68z"/>
	<path class="st8" d="M40.01,49.92h-3.85c0.02-0.05,0.04-0.1,0.06-0.14c0.03-2.02,1.22-2.4,1.81-2.62
		C38.82,48.01,39.52,49.08,40.01,49.92z"/>
	<path class="st9" d="M47,49.92h-4.46l0.96-1.13c-0.47,0.14-1.01,0.99-1.01,0.99h-2.24l-0.88-3.22h0.59
		c-0.01-0.25-0.09-0.91-0.16-1.36c0.09,0.06,0.14,0.09,0.14,0.09l0-0.01l0.1,0.2l1.76,1.34c0,0,0.29-1.29,1.32-1.52
		c0.19-0.04,0.4-0.05,0.65-0.01c0.52,0.52,0.97,1.04,1.37,1.56c0.44,0.56,0.82,1.12,1.14,1.68C46.55,48.99,46.79,49.46,47,49.92z"/>
	<path class="st9" d="M47.56,56.71v-5.42c0.53,1.48,0.77,2.8,0.99,3.76C48.94,56.79,47.96,56.78,47.56,56.71z"/>
	<rect x="72.05" y="77.06" class="st10" width="2.89" height="0.55"/>
	<rect x="27.24" y="59.86" class="st11" width="1.23" height="17.36"/>
	<path class="st12" d="M43.34,45.04c-0.14,0.03-0.19,0.13-0.22,0.25c-0.04,0.18,0,0.43-0.06,0.64c0.02,0.26,0.02,0.49,0,0.69
		c-0.08,0.73-0.43,1.1-1.29,1.27c-1.09,0.22-1.8-0.95-1.8-1.31v-0.02c-0.01-0.25-0.09-0.91-0.16-1.36c0.09,0.06,0.14,0.09,0.14,0.09
		l0-0.01l0.12-1c0,0-0.75-0.43-0.69-1.11c0.06-0.69,0.88-0.28,0.88-0.28s0.66,1.17,0.98,1.03c0.32-0.14-0.1-0.65-0.49-1.07
		c-0.38-0.43,0.38-0.32,0.38-0.32s0.32-1.11-0.22-1.19c-0.55-0.08-0.44-0.2-0.51-0.53c-0.06-0.32,0.06,0.32,1.62-0.1
		c0.44-0.12,0.71-0.35,0.88-0.62c0.23,0.17,0.41,0.46,0.41,0.46l0.08,0.3l0.41,0.55c0,0,0.69,0.81,0.83,2.18
		C44.77,44.94,43.68,44.96,43.34,45.04z"/>
	<path class="st13" d="M43.5,48.78l-0.96,1.13h-2.53c-0.49-0.83-1.19-1.9-1.99-2.76c0.01,0,0.02-0.01,0.04-0.01
		c0.11-1.18,0.71-1.99,1.1-2.42c0.27,0.22,0.5,0.38,0.64,0.47c0.06,0.45,0.15,1.11,0.16,1.36h-0.59l0.88,3.22h2.24
		C42.49,49.77,43.03,48.92,43.5,48.78z"/>
	<rect x="26.41" y="77.23" class="st11" width="2.89" height="0.55"/>
	<rect x="72.88" y="59.86" class="st10" width="1.23" height="17.2"/>
	<path class="st14" d="M67.07,70.28v0.87l-0.04,0.04l-0.82,0.87c0,0-0.11-0.1-0.3-0.27c-0.8-0.72-3.06-2.78-5.09-4.71
		c-1.18-1.12-2.29-2.2-2.98-2.95c-0.38-0.4-0.63-0.71-0.71-0.88c-0.54-1.11-2.22-3,1.95-3.4h7.24c-0.35,0.84-3.58,1.64-3.93,2.48
		c-0.32,0.76,0.25,1.45,0.9,2.24c0.09,0.11,0.18,0.22,0.27,0.34l0,0l-0.05,0l-1.37,0.03h-0.01l-0.98,0.02
		c-0.14,0.1-0.15,0.2-0.14,0.32c0.01,0.07,0.02,0.21,0.01,0.41l3.04-0.1C65.12,67.13,66.08,68.72,67.07,70.28z"/>
	<path class="st15" d="M67.07,71.27v3.89c-1.02,0.23-2.91,0.65-3.29,0.67c-0.54,0.02-0.69,0.02-0.63-0.31
		c0.06-0.33,2.54-1.39,2.89-1.93c0.22-0.34,0.04-1.21-0.12-1.8c0.19,0.17,0.3,0.27,0.3,0.27l0.82-0.87
		C67.05,71.22,67.06,71.25,67.07,71.27z"/>
	<path class="st16" d="M61.71,73.52h-2.18l-0.34-3.02c0,0-0.03-0.11-0.08-0.32c1-1.1,1.49-2.2,1.72-3.09
		c0.15-0.58,0.2-1.06,0.2-1.39c0.01-0.2-0.01-0.34-0.01-0.41c-0.01-0.11,0-0.22,0.14-0.32c0,0,0,0,0,0l0.35,1.28L61.71,73.52z"/>
	<path class="st17" d="M62.08,74.83c0,0-1.11,1.03-1.66,1.51c-0.55,0.48-1.61,0.78-2.91,0.33c-1.31-0.45,0.51-1.13,1.52-2.07
		c0.48-0.45,0.65-0.82,0.69-1.08h1.96C62.46,74.3,62.08,74.83,62.08,74.83z"/>
	<path class="st18" d="M61.17,64.97C61.16,64.97,61.16,64.97,61.17,64.97c-0.14,0.1-0.16,0.21-0.14,0.32
		c0.01,0.07,0.02,0.21,0.01,0.41c-0.01,0.33-0.05,0.81-0.2,1.39c-0.23,0.88-0.72,1.99-1.72,3.09c-0.22-0.91-0.85-3.57-1.33-5.88
		c-0.31-1.49-0.56-2.84-0.58-3.45c-0.08-1.76-0.42-4.12-0.69-4.15c-0.72,1.7-1.07,10.06-1.11,12.65c0,0.3,0,0.53,0,0.65
		c0.04,1.19-0.83,3.94-0.83,3.94h-2.43c0,0,0-2.3-0.23-10.41c-0.44-5.69-0.32-9.79-0.25-11.44c2.26,0.99,6.07,0.54,7.92-0.07
		l-0.13,6.76l0.63,2.27L61.17,64.97z"/>
	<path class="st19" d="M53.06,74.32c0.02,0.07,0.06,0.13,0.11,0.19c-0.54,0.41-1.94,1.37-3.55,1.49c-0.06,0-0.11,0.01-0.17,0.01
		c-0.21-0.13-0.38-0.29-0.39-0.5c-0.02-0.55,0.51-0.63,1.03-0.56c0.48,0.06,1.74-0.11,2.22-1.02h0.94
		C53.17,74.1,53.11,74.22,53.06,74.32z"/>
	<polygon class="st20" points="23.08,67.86 23.08,68.74 9.5,68.74 5.48,52.16 6.34,52.16 6.38,52.34 10.21,67.93 22.94,67.86 	"/>
	<path class="st21" d="M22.95,67.86L22.95,67.86l-12.74,0.08l-3.82-15.6c0.59,0,1.54,0.12,1.89,0.87c0.52,1.12,1.54,9.24,1.54,9.24
		l0.32,0.81C10,63.9,9.95,64.7,10.24,65.4c0.58,1.43,2.01,2.18,6.61,1.6c1.24-0.16,2.32-0.28,3.24-0.35
		c0.16-0.01,0.31-0.03,0.45-0.04c0,0,0,0,0,0C20.64,66.59,22.9,66.48,22.95,67.86z"/>
	<path class="st22" d="M40.19,59.86c-0.02,0.19-0.05,0.43-0.08,0.65c-0.02,0.16-0.03,0.3-0.05,0.42v0c0,0.02,0,0.03,0,0.04
		c-0.01,0.04-0.01,0.08-0.01,0.11c-0.02,0.28-0.44,0.12-0.5,0.22c-0.07-0.06-0.14-0.12-0.21-0.18c-1.23-0.97-2.29-0.65-2.97-0.19
		v-1.08H40.19z"/>
	<path class="st3" d="M40.06,60.98c0,0.04-0.01,0.08-0.01,0.11C40.05,61.06,40.05,61.02,40.06,60.98z"/>
	<path class="st23" d="M37.15,64.9h-1.49c-0.18,0-0.32-0.14-0.32-0.32v-0.52c0-0.18,0.14-0.32,0.32-0.32h0.97
		C36.75,64.08,36.92,64.47,37.15,64.9z"/>
	<path class="st24" d="M48.62,64.06v0.52c0,0.18-0.14,0.32-0.32,0.32h-1.03c0.19-0.41,0.35-0.8,0.47-1.17h0.56
		C48.48,63.73,48.62,63.88,48.62,64.06z"/>
	<path class="st25" d="M47.96,62.66c-0.01,0.31-0.09,0.67-0.23,1.07c-0.12,0.36-0.28,0.75-0.47,1.17c-1.14,2.46-3.35,5.58-4.11,6.62
		c0-0.06-0.01-0.13-0.02-0.19c-0.25-0.67-0.59-1.44-0.92-2.23c-0.06-0.15-0.13-0.3-0.19-0.44c0.14-0.38,0.34-0.91,0.56-1.52
		c0.27-0.74,0.58-1.59,0.85-2.41c0.54-1.6,0.99-3.1,0.88-3.43c0.14-0.13,0.28-0.26,0.44-0.38c0.7-0.56,1.55-1.01,2.37-0.86
		C47.51,60.33,48.03,61.01,47.96,62.66z"/>
	<path class="st26" d="M43.16,71.75c-0.07,0.76-0.88,0.77-1.62,0.75c-0.5-0.02-0.7-0.34-0.79-0.71c-0.06-0.27-0.07-0.56-0.08-0.77
		c-0.03-0.5-2.25-3.66-3.53-6.11c0,0,0-0.01,0-0.01c-0.23-0.43-0.4-0.82-0.52-1.17c-0.59-1.61-0.26-2.3-0.26-2.3v-0.49
		c0.69-0.45,1.75-0.77,2.97,0.19c0.07,0.05,0.14,0.11,0.21,0.18c-0.01,0.02-0.01,0.06,0.03,0.12c0.14,0.24,0.7,1.9,1.12,3.29
		c0.14,0.46,0.26,0.9,0.35,1.24c0.11,0.43,0.28,0.94,0.5,1.51c0.15,0.38,0.31,0.78,0.48,1.19c0.06,0.15,0.12,0.3,0.19,0.44
		c0.33,0.78,0.67,1.56,0.92,2.23c0.01,0.07,0.02,0.13,0.02,0.19C43.16,71.61,43.16,71.68,43.16,71.75z"/>
	<path class="st3" d="M40.06,60.98c0,0.04-0.01,0.08-0.01,0.11C40.05,61.06,40.05,61.02,40.06,60.98z"/>
	<path class="st23" d="M42.59,64.82v2.35c-0.28,0.59-0.53,1.11-0.71,1.48c-0.21-0.4-0.42-0.79-0.6-1.16v-2.67H42.59z"/>
	<path class="st27" d="M44.3,72.79c0,0.2-0.09,0.38-0.25,0.55c-0.38,0.39-1.15,0.65-2.04,0.65c-0.95,0-1.77-0.31-2.12-0.74
		c-0.11-0.14-0.17-0.29-0.17-0.46c0-0.42,0.41-0.79,1.04-1c0.09,0.37,0.29,0.7,0.79,0.71c0.74,0.02,1.54,0.01,1.62-0.75
		C43.84,71.96,44.3,72.35,44.3,72.79z"/>
	<path class="st28" d="M54.57,75.23l-0.21,2.11c0,0-0.69,0.05-6.51-0.11c-0.04-0.01-0.08-0.01-0.11-0.02
		c-0.86-0.16-0.81-0.47-0.25-0.73c0.37-0.18,0.98-0.34,1.69-0.42c0.09-0.01,0.17-0.02,0.26-0.03c0.05-0.01,0.11-0.01,0.17-0.01
		c1.61-0.12,3.02-1.08,3.55-1.49c0.05,0.07,0.12,0.13,0.2,0.19c0.02,0.01,0.03,0.02,0.05,0.04C53.77,74.99,54.28,75.15,54.57,75.23z
		"/>
	<path class="st29" d="M47.74,77.21c-0.57,0.08-2.14,0.25-3.68-0.16c-1.93-0.51-1.87-2.58-1.87-2.58c-0.08,0.65-0.48,1.56-0.91,2.11
		c-0.06-0.22-0.51-0.39-1.41-0.31c-0.71,0.06-1.6-0.12-2.48-0.39c1.62-0.3,2.27-1.85,2.5-2.63c0.34,0.44,1.16,0.74,2.12,0.74
		c0.89,0,1.66-0.26,2.04-0.65c0.8,1.73,2.77,2.81,3.44,3.13C46.93,76.74,46.88,77.04,47.74,77.21z"/>
	<path class="st30" d="M34.03,74.57c-0.66,0.05-0.94,0.71-1.07,0.88c0,0-0.01,0.01-0.01,0.01c0,0,0,0,0,0
		c-0.15,0.15-0.54-0.01-0.54-0.01s-1.82-2.12-4.27-4.19c-2.7-1.15-3.48-2.98-3.84-3.94c-0.11-0.28-0.17-0.49-0.24-0.58
		c-0.21-0.26-1.35-0.32-3.53-0.14c0,0,0,0,0,0c-0.14,0.01-0.29,0.02-0.45,0.04c-0.91,0.08-1.99,0.2-3.24,0.35
		c-4.6,0.58-6.03-0.17-6.61-1.6c-0.28-0.7-0.23-1.5-0.11-2.14c0.02-0.12,0.05-0.23,0.08-0.34c0.25-0.21,2.21-1.76,6.02-1.19
		l0.33,0.04c0,0,4.76,0.21,6.96,0.3c2.2,0.08,3.16,1.9,3.16,1.9l0.05,0.13l0.23,0.64c0,0,1.13,1.38,1.76,2.23
		c0.62,0.83,5.05,6.67,5.31,7.54C34.03,74.53,34.03,74.55,34.03,74.57z"/>
	<path class="st31" d="M39.21,77.37c-3.17,0.06-5.61,0.05-5.61,0.05s-0.64,0.06-0.62-0.52c0.01-0.3-0.01-0.92-0.03-1.44c0,0,0,0,0,0
		c0,0,0.01-0.01,0.01-0.01c0.14-0.17,0.41-0.83,1.07-0.88c0-0.02,0-0.04-0.01-0.07c0.61,0.31,1.98,0.95,3.37,1.37
		c0.88,0.27,1.77,0.44,2.48,0.39c0.9-0.07,1.35,0.09,1.41,0.31C41.37,76.91,40.62,77.36,39.21,77.37z"/>
	<rect x="14.98" y="68.24" class="st32" width="2.62" height="1.74"/>
	<path class="st32" d="M16.81,73.66c0,0-0.53,0.59,0.07,1.19c0.06,0.06,0.14,0.14,0.22,0.22v1.53h-1.71v-7.34h1.71v4.19L16.81,73.66
		z"/>
	<path class="st33" d="M24.31,67.33c-2.24,2.91-5.07,6.5-5.07,6.5l-0.07-0.04l-1.4-0.83l-0.06-0.04l2.42-4.44
		c0.67-0.71,0.49-1.33-0.04-1.84c2.47-0.22,3.76-0.17,3.98,0.11C24.13,66.83,24.2,67.04,24.31,67.33z"/>
	<path class="st34" d="M22.79,78.27c-6.37-1.3-13.17-0.11-13.17-0.11c0.29-1.38,5.31-1.74,9.01-1.4c0.47,0.04,0.92,0.1,1.34,0.16
		c1.18,0.19,1.9,0.39,2.32,0.58C23.19,77.92,22.79,78.27,22.79,78.27z"/>
	<path class="st35" d="M22.29,77.51c-0.42-0.19-1.14-0.4-2.32-0.58c-0.42-0.07-0.86-0.12-1.34-0.16c-0.45-0.45-1.09-1.21-1.54-1.69
		c-0.08-0.08-0.15-0.16-0.22-0.22c-0.59-0.59-0.07-1.19-0.07-1.19l0.28-0.21l0.67-0.5l1.4,0.83c0.02,0.62,0.18,1.51,0.29,1.84
		c0.17,0.49,1.28,0.51,2.28,0.97C22.34,76.88,22.37,77.26,22.29,77.51z"/>
	<path class="st0" d="M69.06,51.43v6.31h-9.44v-6.31h2.09c0,0.02,0,0.04,0,0.04h2.07c0,0,0-0.01,0-0.04H69.06z"/>
	<rect x="59.62" y="57.74" class="st36" width="9.44" height="0.6"/>
	<path class="st37" d="M74.51,56.73c0.03,0.88-0.27,1.43-0.57,1.77h-5.37v-0.16h0.49v-1.97h3.82L72.2,53.6l-0.23-0.93
		c0.02-0.07,0.05-0.15,0.1-0.24c0.21-0.34,1.76-0.41,1.88-0.41c0,0,0.01,0,0.01,0s0.15,0.91,0.23,1.41
		C74.2,53.43,74.46,55.01,74.51,56.73z"/>
	<path class="st38" d="M72.88,60.77v1.45c-0.12,0.67-0.29,1.31-0.96,1.4c-1.13,0.48-2.66,0.85-3.62,1.04
		c-0.44,0.09-0.76,0.14-0.85,0.14c-1.7,0.01-2.96,0.06-3.88,0.12c-0.02,0-0.04,0-0.05,0c-0.08,0-0.15,0.01-0.22,0.01
		c-0.48,0.03-0.86,0.03-1.16,0.01h-0.01c-0.54-0.03-0.83-0.08-0.97,0.02c0,0,0,0,0,0c-0.14,0.1-0.15,0.2-0.14,0.32
		c0.01,0.07,0.02,0.21,0.01,0.41c-0.01,0.33-0.05,0.81-0.2,1.39c-0.23,0.88-0.72,1.99-1.72,3.09c-0.47,0.52-1.06,1.05-1.8,1.54
		c-1.11,1.42-2.53,3.56-2.53,3.56s-0.08-0.02-0.21-0.05c-0.29-0.07-0.8-0.24-1.15-0.49c-0.02-0.01-0.03-0.02-0.05-0.04
		c-0.08-0.06-0.14-0.12-0.2-0.19c-0.05-0.06-0.09-0.12-0.11-0.19c0.05-0.1,0.11-0.23,0.19-0.38c0.44-0.93,1.3-2.78,2.15-4.59
		c1.01-2.18,2.01-4.3,2.22-4.71c0.05-0.09,0.1-0.21,0.16-0.34c0.02-0.05,0.05-0.1,0.07-0.16c0.4-0.91,1.06-2.42,2.23-3.08
		c0.23-0.13,0.48-0.23,0.75-0.28c1.13-0.22,2.46-0.59,3.75-0.91h5.94C71.51,60.14,72.41,60.54,72.88,60.77z"/>
	<path class="st39" d="M77.92,49.1l-2.5,9.4l-0.36,1.36l-0.94,3.54l-0.34,1.28l-0.53,0.04l-0.36,0.01l-4.89,0.1
		c0.1-0.05,0.21-0.1,0.32-0.16c0.95-0.19,2.48-0.56,3.62-1.04c0.66-0.09,0.83-0.73,0.96-1.4v-0.33c0.8-1.09,1.63-2.91,1.63-2.91
		s0.62-2.67,0.91-6.5C75.66,49.28,77.36,49.08,77.92,49.1z"/>
	<path class="st40" d="M70.68,45.43v1.32l-1.84,1.01c0,0-0.04,0.04-0.11,0.13c-0.08-0.54-0.27-1.58-0.46-1.72
		c-0.22-0.16-1.32,0.03-1.32,0.03s-0.91-0.59-0.71-0.92c0.19-0.33-0.11-0.41-0.11-0.41s0.06-0.62-0.19-0.6
		c-0.25,0.02-0.49-0.41-0.1-0.61c0.4-0.2,0.25-0.73,0.25-0.73s-0.19-1.05,0-1.81c0.02-0.08,0.05-0.15,0.08-0.21
		c0.51-0.14,3.05-0.18,2.92,0.5c-0.14,0.68-0.71,0.69-0.52,0.98c0.19,0.29,0.44,0.46,0.49,0.73c0.04,0.27,0.1,0.62,0.1,0.62
		l0.41-0.08l-0.02-0.87c0,0,0.52-0.32,0.73-0.03c0.03,0.57,0.02,2.73,0.02,2.73S70.48,45.59,70.68,45.43z"/>
	<path class="st41" d="M71.96,42.53c-0.06,0.41-0.54,0.97-0.86,2.11c-0.13,0.45-0.28,0.68-0.41,0.79c-0.21,0.16-0.38,0.05-0.38,0.05
		s0.02-2.16-0.02-2.73c-0.21-0.28-0.73,0.03-0.73,0.03l0.02,0.87l-0.41,0.08c0,0-0.06-0.35-0.1-0.62c-0.04-0.27-0.29-0.44-0.49-0.73
		c-0.19-0.29,0.38-0.3,0.52-0.98c0.14-0.68-2.41-0.64-2.92-0.5v0c0.51-1.21,1.94-2.04,4.04-1.47C72.31,40,72.02,42.12,71.96,42.53z"
		/>
	<path class="st42" d="M61.17,51.43h-1.24c-0.15-0.18-0.3-0.34-0.37-0.34c-0.15-0.01-0.41-0.05-0.72-0.21
		c-0.31-0.16-0.38-0.5-0.57-0.74c-0.19-0.24-0.6,0.08-0.59,0.22c0.01,0.13-0.33,0.4-0.46,0.05c-0.13-0.34,0.49-0.52,0.64-0.52
		c0.16,0.01,0.04-0.16,0.01-0.21c-0.02-0.05-0.39-0.08-0.57,0.16c-0.18,0.24-0.46,0.36-0.47,0.14c-0.06-0.56,0.72-0.65,0.77-0.68
		c0.05-0.03,0.02-0.14-0.08-0.12c-0.1,0.02-0.93-0.05-1.24-0.05c-0.31,0-0.18-0.28-0.18-0.28s0.76-0.41,2.4,0.06
		c0.77,0.22,1.44,0.86,1.94,1.48C60.77,50.79,61.01,51.17,61.17,51.43z"/>
	<path class="st3" d="M53.71,31.57c-0.12-0.04-0.27-0.09-0.45-0.14c0.04-0.01,0.08-0.01,0.13,0C53.53,31.46,53.63,31.51,53.71,31.57
		z"/>
	<path class="st43" d="M52,31.21l-0.29,0.22c0.09,0,0.13,0.01,0.13,0.01s-0.01,0.05-0.01,0.14c-0.07,0-0.15,0-0.25,0
		c-0.03,0-0.07,0-0.11,0c-0.05,0-0.09,0-0.14,0.01c-0.09,0-0.19,0.01-0.29,0.02c-0.03,0-0.07,0.01-0.1,0.01
		c-0.08,0.01-0.16,0.02-0.25,0.03c-0.04,0.01-0.08,0.01-0.13,0.02c-0.04,0.01-0.08,0.01-0.13,0.02c-0.08,0.02-0.17,0.03-0.26,0.05
		c-0.04,0.01-0.08,0.02-0.13,0.03c-0.04,0.01-0.08,0.02-0.13,0.04c-0.04,0.01-0.08,0.02-0.12,0.04c-0.06,0.02-0.12,0.04-0.17,0.07
		c-0.04,0.02-0.08,0.03-0.11,0.05c-0.03,0.01-0.05,0.02-0.08,0.04c-0.03,0.01-0.05,0.03-0.08,0.04c-0.02,0.01-0.04,0.02-0.06,0.04
		c-0.03,0.02-0.06,0.04-0.09,0.06c-0.03,0.02-0.06,0.04-0.09,0.07c-0.03,0.02-0.06,0.05-0.08,0.07c-0.01,0-0.01,0.01-0.01,0.01
		c-0.02,0.02-0.05,0.04-0.07,0.07c-0.04,0.04-0.07,0.08-0.1,0.12c-0.02,0.02-0.03,0.04-0.04,0.06c-0.1,0.16-0.17,0.34-0.19,0.55
		c-0.01,0.04-0.01,0.08-0.01,0.13c0,0.14,0.02,0.3,0.06,0.47c-0.02-0.05-0.03-0.08-0.03-0.08s0,0-0.01-0.01
		c-0.55,0.01-2.08-0.03-2.71-0.83c-0.61-0.77,0.65-1.49,2.21-1.71c0.42-0.06,0.86-0.08,1.29-0.06c1.46,0.08,2.17,0.16,2.44,0.19
		c0.11,0.01,0.15,0.02,0.15,0.02L52,31.21z"/>
	<rect x="35.54" y="49.92" class="st0" width="12.02" height="7.66"/>
	<path class="st44" d="M63.78,51.47h-2.07c0,0,0-0.01,0-0.04c-0.03-0.59-0.4-7.66-1.68-10.38c0,0,0.11,6.82,0.43,9.35
		c-0.5-0.62-1.18-1.25-1.94-1.48c-1.64-0.48-2.4-0.06-2.4-0.06s-0.14,0.27,0.18,0.28c0.31,0.01,1.15,0.07,1.24,0.05
		c0.1-0.02,0.13,0.09,0.08,0.12c-0.05,0.03-0.83,0.12-0.77,0.68c0.01,0.21,0.29,0.1,0.47-0.14c0.18-0.24,0.55-0.21,0.57-0.16
		c0.02,0.05,0.14,0.21-0.01,0.21c-0.16,0-0.77,0.18-0.64,0.52c0.13,0.34,0.47,0.08,0.46-0.05c-0.01-0.13,0.4-0.46,0.59-0.22
		c0.19,0.25,0.26,0.58,0.57,0.74c0.31,0.16,0.57,0.21,0.72,0.21c0.07,0,0.22,0.16,0.37,0.34h-0.32v0.58c-0.01,0-0.02,0.01-0.03,0.01
		c-1.85,0.61-5.66,1.07-7.92,0.07c-0.26-0.11-0.51-0.25-0.73-0.41c0.17,0,0.83-1.34,0.81-4.36c-0.03-3.01-0.04-5.12-0.04-5.12
		l-0.41-0.04c0,0-1.37,3.04-3.2,4.7c-0.57,0.52-1.21,1.1-1.82,1.66c-0.56,0.51-1.1,1-1.53,1.4h-2.21l0.96-1.13l0,0l1.64-1.94
		l0.46-0.54c0,0,1.61-1.46,2.3-3.33c0.67-1.84,2.08-6.43,4.34-6.76c0.05-0.01,0.09-0.01,0.14-0.02c0.77,0.61,2.6,1.3,2.87-1.45
		c0.02,0,0.04,0,0.08-0.01c0.55-0.08,3.33-0.67,5.09,2.46c1.84,3.64,2.53,5.74,2.8,7.16c0.26,1.35,0.54,6.58,0.57,7.08
		C63.78,51.46,63.78,51.47,63.78,51.47z"/>
	<path class="st45" d="M53.71,31.57c-0.12-0.04-0.27-0.09-0.45-0.14c0.04-0.01,0.08-0.01,0.13,0
		C53.53,31.46,53.63,31.51,53.71,31.57z"/>
	<path class="st46" d="M26.89,57.57c-0.01,0.07-0.02,0.11-0.02,0.11s-1.74,0.18-2.43,0.32c-0.28,0.05-0.94,0.26-1.76,0.49H21v0.44
		c-0.78,0.18-1.57,0.33-2.23,0.35c-1.29,0.05-1.8-0.45-2.71-1.54c-0.44-0.54-0.98-1.22-1.76-2.04c-2.34-2.5-3.67-5.47-2.14-6.03
		c1.53-0.55,2.5,1.09,2.5,1.09s1.35,2.13,2.46,3.78c0.67,1,1.24,1.82,1.38,1.91c0.99-0.41,7.19-0.93,8.15-1
		C27.08,56.04,26.94,57.21,26.89,57.57z"/>
	<path class="st47" d="M31.56,57.57v0.92h-8.88c0.82-0.23,1.48-0.44,1.76-0.49c0.7-0.13,2.43-0.32,2.43-0.32s0.01-0.04,0.02-0.11
		H31.56z"/>
	<path class="st48" d="M54.01,56.82c0,0.51-0.29,0.92-0.65,0.92c-0.07,0-0.13-0.01-0.19-0.04v-1.76c0.06-0.03,0.13-0.04,0.19-0.04
		C53.72,55.89,54.01,56.31,54.01,56.82z"/>
	<path class="st18" d="M53.71,56.82c0,0.41-0.23,0.75-0.53,0.75c-0.01,0-0.01,0-0.02,0v-1.5c0.01,0,0.01,0,0.02,0
		C53.48,56.07,53.71,56.41,53.71,56.82z"/>
	<ellipse class="st9" cx="51.66" cy="58.21" rx="1.92" ry="0.28"/>
	<path class="st49" d="M15.95,39.07c0,0-0.88,3.21-0.85,3.78c0.03,0.57,0.59,0.52,0.65,0.31c0.06-0.21,0.92-3.77,0.95-3.89
		s0.24-0.69-0.12-0.74S16.13,38.38,15.95,39.07z"/>
	<path class="st50" d="M58.38,16.58v4.07c0,0.09-0.07,0.16-0.16,0.16h-4.61c-0.09,0-0.16-0.07-0.16-0.16v-4.18
		c0-1.06,0.86-1.92,1.91-1.92h1C57.47,14.56,58.38,15.46,58.38,16.58z"/>
	<path class="st48" d="M53.17,55.91v1.46c0,0.37-0.3,0.68-0.68,0.68h-1.46c-0.3,0-0.55-0.24-0.55-0.55v-1.59
		c0-0.16,0.13-0.28,0.28-0.28h2.12C53.04,55.62,53.17,55.75,53.17,55.91z"/>
	<path class="st50" d="M33.01,12.89v4.07c0,0.09-0.07,0.16-0.16,0.16h-4.61c-0.09,0-0.16-0.07-0.16-0.16v-4.18
		c0-1.06,0.86-1.91,1.91-1.91h1C32.11,10.86,33.01,11.77,33.01,12.89z"/>
	<rect x="30.21" y="2.19" class="st51" width="0.49" height="8.67"/>
	<path class="st50" d="M45.48,22.08v4.07c0,0.09-0.07,0.16-0.16,0.16H40.7c-0.09,0-0.16-0.07-0.16-0.16v-4.18
		c0-1.06,0.86-1.91,1.91-1.91h1C44.57,20.05,45.48,20.96,45.48,22.08z"/>
	<circle class="st52" cx="15.22" cy="43.52" r="1"/>
	<rect x="42.59" y="2.06" class="st51" width="0.42" height="18"/>
	<rect x="55.7" y="2.23" class="st51" width="0.42" height="12.32"/>
	<path class="st53" d="M54.26,31.71c0,0.02,0,0.04,0,0.06c-0.07,0-0.23-0.09-0.55-0.2c-0.08-0.07-0.19-0.12-0.32-0.14
		c-0.05-0.01-0.09-0.01-0.13,0c-0.32-0.09-0.74-0.17-1.27-0.23l0.02-0.01c0,0-0.04-0.01-0.15-0.02c-0.28-0.04-0.98-0.11-2.44-0.19
		c-0.43-0.02-0.87,0-1.29,0.06c-0.02-0.7,0.19-2.5,2.69-2.57C52.41,28.52,54.33,28.62,54.26,31.71z"/>
	<path class="st54" d="M55.32,34.73c-0.04,0.01-0.06,0.01-0.08,0.01c-0.27,2.76-2.11,2.07-2.87,1.45c-0.05,0-0.09,0.01-0.14,0.02
		c-0.21-0.25-0.42-0.03-1.27,0.09c-1.1,0.15-2.09-2.18-2.28-2.63c-0.04-0.17-0.06-0.32-0.06-0.47c0-0.04,0-0.09,0.01-0.13
		c0.02-0.21,0.08-0.39,0.19-0.55c0.01-0.02,0.03-0.04,0.04-0.06c0.03-0.04,0.06-0.08,0.1-0.12c0.02-0.02,0.04-0.05,0.07-0.07
		c0-0.01,0.01-0.01,0.01-0.01c0.03-0.02,0.05-0.05,0.08-0.07c0.03-0.02,0.06-0.05,0.09-0.07c0.03-0.02,0.06-0.04,0.09-0.06
		c0.02-0.01,0.04-0.02,0.06-0.04c0.02-0.02,0.05-0.03,0.08-0.04c0.03-0.01,0.05-0.03,0.08-0.04c0.04-0.02,0.07-0.03,0.11-0.05
		c0.06-0.02,0.11-0.05,0.17-0.07c0.04-0.01,0.08-0.03,0.12-0.04c0.04-0.01,0.08-0.02,0.13-0.04c0.04-0.01,0.08-0.02,0.13-0.03
		c0.08-0.02,0.17-0.04,0.26-0.05c0.04-0.01,0.08-0.01,0.13-0.02c0.04-0.01,0.08-0.01,0.13-0.02c0.08-0.01,0.17-0.02,0.25-0.03
		c0.04,0,0.07-0.01,0.1-0.01c0.1-0.01,0.2-0.01,0.29-0.02c0.05,0,0.1,0,0.14-0.01c0.04,0,0.08,0,0.11,0c0.1,0,0.18,0,0.25,0
		c-0.01,0.16,0.02,0.44,0.23,0.61c0.31,0.26,0.65,0.57,0.83,0.84c0.19,0.27,0.36,0.05,0.36,0.05s-0.58-1.55,0.02-1.63
		c0.17,0.05,0.32,0.09,0.45,0.14c0.41,0.34,0.22,1.2,0.17,1.42c-0.04,0.16,0.12,0.38,0.25,0.52c0.07,0.08,0.13,0.13,0.13,0.13
		L55.32,34.73z"/>
	<path class="st55" d="M52,31.21c0.53,0.05,0.94,0.14,1.27,0.23c-0.6,0.08-0.02,1.63-0.02,1.63s-0.17,0.22-0.36-0.05
		c-0.18-0.27-0.52-0.58-0.83-0.84c-0.21-0.17-0.23-0.45-0.23-0.61c-0.07,0-0.15,0-0.25,0c0.06-0.12,0.16-0.26,0.28-0.39
		c0.11,0.01,0.15,0.02,0.15,0.02L52,31.21z"/>
	<path class="st54" d="M53.4,31.44c0.13,0.02,0.24,0.07,0.32,0.14c-0.12-0.04-0.27-0.09-0.45-0.14
		C53.3,31.43,53.35,31.43,53.4,31.44z"/>
	<path class="st55" d="M54.13,33.51c-0.12-0.14-0.29-0.35-0.25-0.52c0.06-0.22,0.25-1.07-0.17-1.42c0.31,0.11,0.47,0.2,0.55,0.2
		c0-0.02,0-0.04,0-0.06C54.39,32.46,54.24,33.14,54.13,33.51z"/>
	<rect x="35.43" y="57.57" class="st36" width="12.24" height="0.92"/>
	<path class="st56" d="M74,52.19l-0.52,0.5l-1.38,0.29c0,0-0.01,0.01-0.04,0.02l-0.08-0.34c-0.04,0.2,0.05,0.3,0.05,0.3
		s-0.38-0.3-0.38-0.67s-0.95-1.24-1.16-2.38c0,0,0.06-1.81,0.84-1.91c0.78-0.11,1.42,0.38,2,1.1c-0.03-0.05-0.06-0.1-0.1-0.15
		c0.2,0.24,0.37,0.48,0.45,0.7C73.97,50.48,74,52.19,74,52.19z"/>
	<path class="st57" d="M70.48,49.92c0.21,1.13,1.16,2,1.16,2.38s0.38,0.67,0.38,0.67s-0.09-0.1-0.05-0.3l0.08,0.34l0.14,0.59
		l0.68,2.77h-3.82v-4.94H67.1c0.34-1.83,1.31-3.15,1.64-3.54c0.07-0.08,0.11-0.13,0.11-0.13l1.84-1.01l0.13-0.07
		c0.35,0.08,0.74,0.35,1.11,0.7c0.5,0.47,0.98,1.09,1.31,1.58c0.03,0.05,0.07,0.1,0.1,0.15c-0.59-0.73-1.22-1.21-2-1.1
		C70.54,48.11,70.48,49.92,70.48,49.92z"/>
	<path class="st39" d="M73.22,59.65"/>
	<path class="st58" d="M78.86,48.86l-2.25,9.63l-0.32,1.36l-1.36,5.81h-5.65v1.19h-0.61v8.15c0.89,0.18,4.66,0.97,5.53,1.24
		c0.98,0.31,0.38,1.36-0.1,1.08c-0.48-0.28-5.23-0.89-6.23-0.92c-1-0.03-6.34,0.65-6.34,0.65c-1.15-1.02,3.18-1.67,5.53-1.94v-8.18
		l-0.38-0.08v-1.34l-2.61,0.08l-3.04,0.1c0.01-0.2-0.01-0.34-0.01-0.41c-0.01-0.11,0-0.22,0.14-0.32l0.98-0.02h0.01l1.37-0.03
		l0.05,0l4.41-0.1l4.89-0.1l0.36-0.01l0.53-0.04l0.34-1.28l0.94-3.54l0.36-1.36l2.5-9.4l0.06-0.23H78.86z"/>
	<g>
		<polygon class="st59" points="80.87,58.5 80.87,59.86 75.05,59.86 75.42,58.5 		"/>
	</g>
	<polygon class="st60" points="75.42,58.5 75.05,59.86 21,59.86 21,58.5 	"/>
	<path class="st61" d="M47.13,60.05c-0.82-0.14-1.67,0.31-2.37,0.86c-0.15,0.12-0.3,0.25-0.44,0.38c-0.01-0.04-0.04-0.07-0.07-0.07
		c-0.13-0.01-0.23-0.1-0.31-0.22c-0.08-0.13-0.13-0.29-0.17-0.47c-0.05-0.23-0.07-0.48-0.07-0.67h3.03
		C46.74,59.86,46.91,59.89,47.13,60.05z"/>
	<path class="st62" d="M43.44,64.72H40.7c-0.42-1.39-0.98-3.05-1.12-3.29c-0.03-0.06-0.04-0.09-0.03-0.12
		c0.05-0.11,0.48,0.06,0.5-0.22c0-0.03,0.01-0.07,0.01-0.11c0-0.01,0-0.03,0-0.04v0c0.01-0.11,0.03-0.26,0.05-0.42
		c0.88,0.07,2.6,0.18,3.67,0.02c0.04,0.18,0.09,0.34,0.17,0.47c0.08,0.13,0.18,0.21,0.31,0.22c0.03,0,0.05,0.03,0.07,0.07
		C44.43,61.62,43.99,63.12,43.44,64.72z"/>
	<path class="st63" d="M43.78,60.53c-1.06,0.16-2.79,0.05-3.67-0.02c0.02-0.22,0.05-0.46,0.08-0.65h3.52
		C43.71,60.06,43.73,60.3,43.78,60.53z"/>
	<path class="st64" d="M34.03,56.01v1.25c0,0.63-0.51,1.14-1.14,1.14h-0.44c-0.55,0-0.99-0.44-0.99-0.99v-1.39
		c0-0.14,0.12-0.26,0.26-0.26h2.05c0.03,0,0.06,0.01,0.09,0.02C33.96,55.79,34.03,55.89,34.03,56.01z"/>
	<path class="st47" d="M35.93,48.81l-2.07,6.95c-0.03-0.01-0.06-0.02-0.09-0.02h-0.35l1.89-6.66L35.93,48.81z"/>
</g>
</svg>
